<svg version="1.1" xmlns="http://www.w3.org/2000/svg" xmlns:xlink="http://www.w3.org/1999/xlink" width="143.65826" height="167.45245" viewBox="0,0,143.65826,167.45245"><g transform="translate(-248.61412,-90.22021)"><g data-paper-data="{&quot;isPaintingLayer&quot;:true}" fill-rule="nonzero" stroke-linejoin="miter" stroke-miterlimit="10" stroke-dasharray="" stroke-dashoffset="0" style="mix-blend-mode: normal"><path d="M302.58259,256.4718c-3.91316,1.78291 -21.09244,2.39391 -18.83673,-6.62891c1.69256,-6.77024 9.26743,-4.24274 13.97468,-3.93199c0.39218,0.02589 1.87977,-0.02235 3.31411,0.10473c0,-5.05864 0,-10.27602 0,-15.13193c0,0 0,-2.5 2.5,-2.5c2.5,0 2.5,2.5 2.5,2.5c0,6.74826 0,13.49651 0,20.24477v0.6981c0,0 0,1.64983 -1.34026,2.26897c-0.18749,0.92147 -0.7141,1.73945 -2.1118,2.37627z" fill="#000000" stroke="none" stroke-width="0.5" stroke-linecap="butt"/><path d="M332.38669,254.21681c-1.34026,-0.61914 -1.34027,-2.26897 -1.34027,-2.26897v-0.6981c0,-6.74825 0,-13.49651 0,-20.24476c0,0 0,-2.5 2.5,-2.5c2.5,0 2.5,2.5 2.5,2.5c0,4.85591 0,10.07329 0,15.13193c1.43434,-0.12707 2.92194,-0.07883 3.31412,-0.10473c4.70725,-0.31076 12.28211,-2.83826 13.97467,3.93199c2.2557,9.02283 -14.92356,8.41182 -18.83673,6.62892c-1.39769,-0.63682 -1.92431,-1.4548 -2.1118,-2.37627z" data-paper-data="{&quot;index&quot;:null}" fill="#000000" stroke="none" stroke-width="0.5" stroke-linecap="butt"/><path d="M273.40008,207.86818l16.7526,-41.56377l22.18067,-63.84437l16.10073,-0.13269l21.03741,64.90708l16.46619,40.4977z" fill="#84978a" stroke="#617d76" stroke-width="5" stroke-linecap="butt"/><path d="M354.34703,183.47721l-71.13501,0.86642l6.28798,-12.80024h59.66667z" fill="#ffffff" stroke="#617d76" stroke-width="5" stroke-linecap="round"/><path d="M341.35693,145.73361l-41.33334,-1.33334l2.33334,-10.33333l36,0.66667z" fill="#ffffff" stroke="#617d76" stroke-width="5" stroke-linecap="round"/><path d="M332.81541,94.25245c-0.87781,2.34082 -3.21863,1.46301 -3.21863,1.46301l-0.70585,-0.43469c-0.55168,-0.12446 -1.45376,-0.50063 -1.93582,-0.2049c-0.47931,0.29403 -1.62781,0.99299 -1.80949,1.52513c-0.79296,2.32258 -3.59124,8.22259 -5.44948,6.55017c-0.41874,-0.53597 2.15713,-10.72495 4.91111,-12.49703c1.20534,-0.77559 2.85579,-0.24892 4.28369,-0.37337l2.46147,0.75305c0,0 2.34082,0.87781 1.46301,3.21863z" fill="#ff1f1f" stroke="#310000" stroke-width="0" stroke-linecap="butt"/><path d="M343.55284,105.5672c-1.17713,2.20553 -3.38266,1.02839 -3.38266,1.02839l-1.97486,-1.07697c-2.47051,-0.58178 -9.82495,-2.90629 -9.39528,-4.5882c0.23638,-0.92526 6.07243,-0.82537 9.53544,-0.3717c0.64412,0.08438 1.20616,0.18101 1.63478,0.28555l2.55419,1.34027c0,0 2.20553,1.17713 1.02839,3.38266z" fill="#ff1f1f" stroke="#310000" stroke-width="0" stroke-linecap="butt"/><path d="M252.47507,226.75779l8.43096,-18.80088h115.29523l11.59258,18.80088z" fill="#84978a" stroke="#617d76" stroke-width="5" stroke-linecap="butt"/><path d="M344.78308,157.2286c0,3.41743 -1.2535,7.29506 -8.58777,8.89972c-3.64187,0.79681 -11.55258,1.0301 -16.07129,1.0301c-5.02331,0 -13.52485,0.44007 -17.4219,-0.5286c-6.66834,-1.65752 -7.23717,-6.17328 -7.23717,-9.40122c0,-3.03609 2.81853,-6.73507 8.82966,-8.42388c4.11476,-1.15603 10.29525,-0.83652 15.82941,-0.83652c6.163,0 12.10426,-0.15509 16.42696,1.24854c5.22947,1.69807 8.2321,5.21191 8.2321,8.01185z" fill="#000000" stroke="none" stroke-width="0" stroke-linecap="butt"/><path d="M345.75217,157.2286c0,3.41743 -1.30277,7.29506 -8.92527,8.89972c-3.78499,0.79681 -12.00659,1.0301 -16.70288,1.0301c-5.22072,0 -14.05637,0.44007 -18.10656,-0.5286c-6.9304,-1.65752 -7.52159,-6.17328 -7.52159,-9.40122c0,-3.03609 2.9293,-6.73507 9.17666,-8.42388c4.27647,-1.15603 10.69985,-0.83652 16.45149,-0.83652c6.40521,0 12.57996,-0.15509 17.07253,1.24854c5.43499,1.69807 8.55562,5.21191 8.55562,8.01185z" fill="#000000" stroke="none" stroke-width="0" stroke-linecap="butt"/><path d="M343.29045,157.29726c0,2.7734 -1.17763,5.92029 -8.06795,7.22254c-3.42142,0.64665 -10.8533,0.83596 -15.09849,0.83596c-4.71925,0 -12.70619,0.35714 -16.36734,-0.42898c-6.2647,-1.34516 -6.7991,-5.00991 -6.7991,-7.62952c0,-2.46393 2.64792,-5.46582 8.29519,-6.83637c3.8657,-0.93818 9.67208,-0.67888 14.87124,-0.67888c5.78996,0 11.37159,-0.12585 15.43263,1.01326c4.91293,1.37805 7.73381,4.2297 7.73381,6.50198z" fill="#181818" stroke="none" stroke-width="0" stroke-linecap="butt"/><path d="M308.1898,152.16503l-0.3492,9.77765" fill="none" stroke="#495653" stroke-width="2.5" stroke-linecap="round"/><path d="M318.08385,151.11743l-0.3492,11.29085" fill="none" stroke="#495653" stroke-width="2.5" stroke-linecap="round"/><path d="M327.51229,151.69943v10.24325" fill="none" stroke="#495653" stroke-width="2.5" stroke-linecap="round"/><path d="M336.00953,153.21264l-0.4656,7.44964" fill="none" stroke="#495653" stroke-width="2.5" stroke-linecap="round"/><path d="M298.99416,155.07504v4.42321" fill="none" stroke="#495653" stroke-width="2.5" stroke-linecap="round"/><path d="M341.24755,155.65705l0.1164,3.60841" fill="none" stroke="#495653" stroke-width="2.5" stroke-linecap="round"/><path d="M333.43667,191.03796c-0.21861,2.49042 -2.70904,2.27181 -2.70904,2.27181l-3.09702,-0.27464c-7.43818,0.05167 -14.87173,0.44746 -22.27631,1.15349c0,0 -2.48874,0.23703 -2.72576,-2.25171c-0.23703,-2.48874 2.25171,-2.72576 2.25171,-2.72576c7.63157,-0.72599 15.28708,-1.12534 22.95296,-1.17191l3.33166,0.28969c0,0 2.49042,0.21861 2.2718,2.70904z" fill="#536a65" stroke="none" stroke-width="0.5" stroke-linecap="butt"/></g></g></svg>