<svg version="1.1" xmlns="http://www.w3.org/2000/svg" xmlns:xlink="http://www.w3.org/1999/xlink" width="137.11809" height="161.41791" viewBox="0,0,137.11809,161.41791"><g transform="translate(-251.21525,-98.17629)"><g data-paper-data="{&quot;isPaintingLayer&quot;:true}" fill-rule="nonzero" stroke-linejoin="miter" stroke-miterlimit="10" stroke-dasharray="" stroke-dashoffset="0" style="mix-blend-mode: normal"><path d="M302.57419,259.4729l-16.98541,-1.20722l-1.85133,-5.42168l3.80445,-4.26525c0,0 7.18944,0.13648 10.17023,0.33326c0.39218,0.02589 1.87977,-0.02235 3.31411,0.10473c0,-5.05864 0,-10.27602 0,-15.13193c0,0 0,-2.5 2.5,-2.5c2.5,0 2.5,2.5 2.5,2.5c0,6.74826 0,13.49651 0,20.24477v0.6981c0,0 0,1.64983 -1.34026,2.26897c-0.18749,0.92147 -0.7141,1.73945 -2.1118,2.37627z" fill="#000000" stroke="none" stroke-width="0.5" stroke-linecap="butt"/><path d="M332.37833,257.21791c-1.34026,-0.61914 -1.34027,-2.26897 -1.34027,-2.26897v-0.6981c0,-6.74825 0,-13.49651 0,-20.24476c0,0 0,-2.5 2.5,-2.5c2.5,0 2.5,2.5 2.5,2.5c0,4.85591 0,10.07329 0,15.13193c1.43434,-0.12707 2.92194,-0.07883 3.31412,-0.10473c2.81835,-0.18606 9.66097,-0.47078 9.66097,-0.47078l4.3137,4.40277l-2.92508,6.08112l-15.91165,0.5478c0,0 -1.92431,-1.4548 -2.1118,-2.37627z" data-paper-data="{&quot;index&quot;:null}" fill="#000000" stroke="none" stroke-width="0.5" stroke-linecap="butt"/><path d="M254.16667,226.074l4.5,-16l51.08542,-3.52396l76.08125,1.02396v18.5l-10.04012,14.28391l-19.81701,-10.05841l-80.2262,7.2745z" fill="#8c8794" stroke="#59576e" stroke-width="5" stroke-linecap="butt"/><path d="M274.83333,207.324c0,0 2.21899,-6.38708 4.33892,-12.48906c5.81631,-16.74152 32.66108,-94.01094 32.66108,-94.01094l16.10073,-0.13269l34.39927,106.1327z" fill="#8c8794" stroke="#59576e" stroke-width="5" stroke-linecap="butt"/><path d="M353.25,177.25677c0.15535,-0.08739 0.33008,-0.15508 0.52143,-0.20468c0.23051,-0.07011 0.47513,-0.10782 0.72857,-0.10782c0.03632,0 0.07245,0.00078 0.10838,0.00231c2.97077,-0.06053 8.09521,2.53716 9.4046,4.35015c1.96938,2.72683 1.36724,7.35339 2.07904,10.51882c0.31223,1.3885 2.31404,1.79334 1.77969,3.75262c-0.06396,0.23452 -0.79934,0.6814 -0.99306,0.9318c-1.02702,1.32753 -0.92564,4.3227 -2.68535,6.13443c-1.10527,1.13795 -3.44933,1.99097 -5.6933,1.80985c-1.38826,-0.11205 -1.61822,-0.74027 -2.33013,-1.94658c-0.55788,-0.94531 0.06812,-2.72459 -0.40594,-3.68539c-0.89691,-1.8178 -1.41135,-4.30117 -1.96897,-6.24413c-0.66201,-2.30668 -2.19902,-1.08413 -1.68249,-3.40713c0.05653,-0.2542 -0.13548,-2.08369 -0.42898,-2.10359c-0.16676,0.03505 0.7437,-2.44652 0.56651,-2.44652c-0.16822,0 -0.08256,-2.18328 -0.24147,-2.21496c-1.14537,-0.22833 -0.00853,-1.73922 -0.00853,-2.95171c0,-0.81357 0.38862,-1.53638 0.99036,-1.99291c0.07696,-0.07451 0.16278,-0.14011 0.25964,-0.19459z" fill="#8c8794" stroke="none" stroke-width="0.5" stroke-linecap="butt"/><path d="M342.13222,155.98606c-1.17875,-1.17875 -3.18552,-1.1575 -2.7926,-1.81215c-1.27907,-2.25706 -0.17129,-3.92065 -1.02526,-6.60809c-1.17703,-3.70411 0.23808,-8.44941 -1.14431,-12.04122c-1.25231,-3.25383 -4.93287,-6.20912 -6.03375,-9.49206c-1.43377,-4.27566 -4.20088,-9.53302 -3.52369,-14.26523c0.74409,-5.19966 7.19137,-6.85769 11.5936,-7.99977c4.18671,-0.645 8.7323,-2.15789 9.7933,4.00244c0.19454,1.12954 -1.19085,1.99329 -1.48618,3.10076c-0.35854,1.34454 -0.32675,2.81365 -0.0359,4.17444c0.20533,0.96064 1.42156,1.40721 2.19991,1.54069c2.45516,0.42106 7.51736,0.13996 9.19734,2.49927c1.44115,2.02389 0.66006,5.56946 0.00552,7.69768c-0.12149,0.39502 -1.52044,3.13295 -1.32668,3.95573c0.66824,2.83757 3.8673,5.83933 5.28116,8.37856c0.60425,1.0852 1.68412,2.04651 1.75606,3.28652c0.07941,1.36873 2.3068,1.99251 1.86021,3.28876c-3.96344,4.93846 -12.82895,6.65502 -17.65097,10.3259l0.06777,-0.03223c0,0 -4.96777,1.76776 -6.73553,0z" fill="#8c8794" stroke="none" stroke-width="0.5" stroke-linecap="butt"/><path d="M291.51358,148.30475c0.44313,-0.62228 1.3059,-1.34852 2.77698,-0.85816c2.37171,0.79057 4.18114,0.56228 4.18114,0.56228l-0.3272,4.53325c-1.42463,6.64762 -6.21675,12.71958 -7.59375,19.36995c-1.34895,6.51486 1.0679,15.89729 -5.25362,19.50098c-3.9398,1.98807 -12.29911,-0.39172 -12.06772,-7.17704c0.12063,-3.53747 2.33383,-2.29469 3.07029,-4.71667c0.92888,-3.05477 0.97282,-6.98848 1.53465,-10.31402c0.92409,-5.46985 2.69117,-11.09447 5.50621,-15.84669c1.28378,-2.16723 2.08851,-4.22998 4.81655,-5.12739c1.06364,-0.34989 2.22785,-0.01754 3.35648,0.07352z" fill="#8c8794" stroke="none" stroke-width="0.5" stroke-linecap="butt"/><path d="M357.93657,179.30557l-82.8699,3.9351l4.95733,-13.33333h68.25867z" fill="#ffffff" stroke="#59576e" stroke-width="5" stroke-linecap="round"/><path d="M361.93333,143.574l-62.93334,-1.33334l3.5527,-10.33333l54.8129,0.66667z" fill="#ffffff" stroke="#59576e" stroke-width="5" stroke-linecap="round"/><path d="M298.33333,147.61829c0,2.5 -2.5,2.5 -2.5,2.5h-0.33334c-0.96802,-0.00062 -1.93604,-0.00123 -2.90406,-0.00184c-0.64729,0.04393 -4.64969,-0.05689 -5.70211,0.97597c-1.14943,1.12805 -1.07039,3.06118 -1.89618,4.44384c-0.94171,1.57674 -2.28554,2.9942 -2.76036,4.76832c-1.20594,4.50591 -0.7129,9.1963 -1.6042,13.72203c-0.34201,1.7366 -0.49967,3.62343 -1.47367,5.1013c-0.71055,1.07814 -2.10683,1.51298 -3.2636,2.08671c-0.76042,0.37715 -2.53326,0.42336 -2.23603,1.21844c1.10524,2.9564 5.15173,4.97312 7.27464,7.08414c0,0 3.36776,1.16777 1.6,2.93553c-1.76776,1.76776 -5.13554,0.6 -5.13554,0.6c-2.79439,-2.81259 -8.50061,-5.66763 -8.72536,-10.24919c-0.22946,-4.67739 2.00663,-4.77172 5.0973,-6.1149c0.46413,-0.20171 1.15761,-0.1374 1.40307,-0.57995c1.4658,-2.64281 0.88121,-7.85115 1.17287,-10.74929c0.50191,-4.98738 1.80039,-8.143 4.32224,-12.32572c1.10303,-1.82949 1.02654,-3.99186 2.77049,-5.55616c2.6758,-2.40018 5.7074,-2.08358 8.96456,-2.35737c1.03198,-0.00062 2.06396,-0.00122 3.09594,-0.00184h0.33334c0,0 2.5,0 2.5,2.5z" fill="#59576e" stroke="none" stroke-width="0.5" stroke-linecap="butt"/><path d="M343.46665,156.68496c0,-2.5 5.7,-3.9 5.7,-3.9l0.12219,0.15918c4.02002,-1.50171 6.69593,-3.72056 10.32423,-5.84115c1.59143,-0.93013 3.73858,-0.59474 5.30202,-1.57119c0.262,-0.16363 -0.52951,-0.34394 -0.71203,-0.59316c-0.77189,-1.05399 -1.41459,-2.19678 -2.13117,-3.28913c-1.80558,-2.75241 -3.72643,-5.03149 -5.89027,-7.51146c-0.83533,-1.43593 -2.36841,-2.65227 -2.50597,-4.30778c-0.13668,-1.64499 0.92862,-3.20338 1.76355,-4.62731c0.02593,-0.04422 4.35888,-3.39615 3.71149,-4.10617c-0.6702,-0.73503 -1.98936,0.01515 -2.98404,0.02151c-1.30431,0.00835 -2.61617,0.12751 -3.91301,-0.01216c-2.94074,-0.31673 -6.5427,-1.16175 -8.29117,-3.97486c-1.63326,-2.62775 0.2064,-8.45629 -0.01873,-11.36902c-0.05695,-0.73681 -1.48663,0.08875 -2.19825,0.28811c-4.09898,1.14835 -7.60299,1.67583 -11.38171,3.76267c0,0 -2.19474,1.19713 -3.39187,-0.99761c-1.19713,-2.19474 0.99761,-3.39187 0.99761,-3.39187c4.12427,-2.22562 8.03722,-3.29618 12.61829,-4.23732c1.23278,-0.25326 2.50419,-1.0449 3.71185,-0.69072c6.04724,1.77354 4.62415,7.68618 4.36699,12.45612c-0.0331,0.61386 -0.58852,1.27977 -0.29581,1.82035c0.45661,0.84329 3.96483,1.3261 4.37549,1.35847c2.7839,0.21944 8.57384,-1.20504 10.43628,2.00935c0.96801,1.67069 1.08174,3.8805 0.63136,5.75811c-0.27245,1.13581 -5.47231,3.86948 -5.15632,5.5084c0.14245,0.73885 0.99602,1.12815 1.49403,1.69222c2.97942,3.39467 7.10114,7.56938 8.64522,11.86608c0.53893,1.49967 1.40923,3.35502 0.62131,4.74018c-1.81019,3.1823 -4.89345,2.29761 -7.36465,3.76214c-3.79149,2.24698 -6.78505,4.56927 -11.0091,6.15885l-1.87781,0.15918c0,0 -5.7,1.4 -5.7,-1.1z" fill="#59576e" stroke="none" stroke-width="0.5" stroke-linecap="butt"/><path d="M363.06556,206.05273c-1.76776,-1.76776 0,-3.53553 0,-3.53553l0.4699,-0.21703c0.80045,-1.86771 2.88382,-4.94067 3.14057,-6.89815c0.29731,-2.26672 -2.03976,-4.65504 -2.79264,-6.43222c-0.98192,-2.31779 -0.784,-4.0293 -1.13413,-6.38084c-0.05854,-0.39312 0.0364,-0.94243 -0.30007,-1.15399c-2.23602,-1.40591 -6.96089,-2.29673 -9.40643,-3.11163c0,0 -2.37171,-0.79057 -1.58114,-3.16228c0.79057,-2.37171 3.16228,-1.58114 3.16228,-1.58114c2.76359,0.9215 9.07628,2.33399 11.26024,4.2217c2.78345,2.40589 1.25275,6.24681 2.5658,9.13183c1.23707,2.71807 3.57777,5.53678 3.20735,8.90112c-0.26774,2.43175 -2.51979,6.08712 -3.5261,8.43518l-1.5301,1.78297c0,0 -1.76777,1.76776 -3.53553,0z" fill="#59576e" stroke="none" stroke-width="0.5" stroke-linecap="butt"/><path d="M309.13102,162.57581c-0.44584,1.78337 -0.22847,3.59546 -0.49061,5.39662c-0.55938,3.84351 -5.41548,2.95458 -6.14473,-0.32707c-0.42333,-1.90498 -0.10577,-8.40251 0.8031,-9.91729c2.23662,-3.7277 5.19069,-0.00793 5.83224,2.55827z" fill="#000000" stroke="none" stroke-width="0.5" stroke-linecap="butt"/><path d="M335.15405,162.39694c-0.46875,1.87503 0.04937,4.28046 -1.48584,5.81304c-4.86702,4.8587 -6.9538,-6.11596 -5.17334,-9.28116c0.79151,-1.40709 1.18018,-3.40132 3.31309,-3.23725c0.97383,0.07491 4.30501,1.97969 3.34608,3.41808z" fill="#000000" stroke="none" stroke-width="0.5" stroke-linecap="butt"/><path d="M325.76791,184.65758c0.05665,-0.04474 0.11327,-0.08968 0.16987,-0.13477zM325.53307,184.84184c0.05759,-0.10003 1.27111,-2.14856 3.40012,-0.95778c2.1819,1.22036 0.96155,3.40227 0.96155,3.40227l-0.88878,1.18443c-4.79666,3.65317 -9.60518,5.98865 -15.907,4.14085c-1.08644,-0.31856 -4.63786,-4.09133 -5.28251,-4.73896c0,0 -1.7627,-1.77282 0.01012,-3.53552c1.77282,-1.7627 3.53552,0.01012 3.53552,0.01012c1.20257,1.2109 1.95966,3.19986 3.61141,3.62904c4.23152,1.09952 7.44864,-0.71056 10.55957,-3.13446z" fill="#000000" stroke="none" stroke-width="0.5" stroke-linecap="butt"/></g></g></svg>