<svg version="1.1" xmlns="http://www.w3.org/2000/svg" xmlns:xlink="http://www.w3.org/1999/xlink" width="143.5948" height="222" viewBox="0,0,143.5948,222"><defs><radialGradient cx="320" cy="180" r="98.33793" gradientUnits="userSpaceOnUse" id="color-1"><stop offset="0" stop-color="#ffffff" stop-opacity="0.62745"/><stop offset="1" stop-color="#ffffff" stop-opacity="0"/></radialGradient></defs><g transform="translate(-248.2026,-69)"><g data-paper-data="{&quot;isPaintingLayer&quot;:true}" fill-rule="nonzero" stroke-linecap="butt" stroke-linejoin="miter" stroke-miterlimit="10" stroke-dasharray="" stroke-dashoffset="0" style="mix-blend-mode: normal"><path d="M389.2974,180c0,59.92289 -31.02551,108.5 -69.2974,108.5c-38.27189,0 -69.2974,-48.57711 -69.2974,-108.5c0,-59.92289 31.02551,-108.5 69.2974,-108.5c38.27189,0 69.2974,48.57711 69.2974,108.5z" fill="#ff8787" stroke="#a31c32" stroke-width="5"/><path d="M376.79782,180c0,53.5913 -25.42925,97.03562 -56.79782,97.03562c-31.36856,0 -56.79782,-43.44432 -56.79782,-97.03562c0,-53.59129 25.42925,-97.03562 56.79782,-97.03562c31.36856,0 56.79782,43.44432 56.79782,97.03562z" fill="#ffb0b0" stroke="#5863a3" stroke-width="0"/><path d="M360.03468,176.21864c0,41.28189 -17.56189,74.74747 -39.22559,74.74747c-21.6637,0 -39.22559,-33.46558 -39.22559,-74.74747c0,-41.28189 17.56189,-74.74747 39.22559,-74.74747c21.6637,0 39.22559,33.46558 39.22559,74.74747z" fill="none" stroke="#ffd6d6" stroke-width="5"/><path d="M346.6061,176.21864c0,27.14935 -11.54971,49.15825 -25.79701,49.15825c-14.24729,0 -25.79701,-22.00889 -25.79701,-49.15825c0,-27.14935 11.54971,-49.15825 25.79701,-49.15825c14.24729,0 25.79701,22.0089 25.79701,49.15825z" fill="none" stroke="#ffffff" stroke-width="5"/><path d="M389.17959,180c0,58.31243 -30.97276,105.58401 -69.17959,105.58401c-38.20683,0 -69.17959,-47.27157 -69.17959,-105.58401c0,-58.31243 30.97276,-105.58401 69.17959,-105.58401c38.20683,0 69.17959,47.27157 69.17959,105.58401z" fill="url(#color-1)" stroke="none" stroke-width="0"/></g></g></svg>