<svg version="1.1" xmlns="http://www.w3.org/2000/svg" xmlns:xlink="http://www.w3.org/1999/xlink" width="791.74735" height="510.99147" viewBox="0,0,791.74735,510.99147"><defs><linearGradient x1="319.43847" y1="-33.81688" x2="319.43847" y2="323.54048" gradientUnits="userSpaceOnUse" id="color-1"><stop offset="0" stop-color="#40e4ff"/><stop offset="1" stop-color="#a7e0ff"/></linearGradient><linearGradient x1="320.00001" y1="219.88066" x2="320.00001" y2="387.88066" gradientUnits="userSpaceOnUse" id="color-2"><stop offset="0" stop-color="#43ff41"/><stop offset="1" stop-color="#00ca43"/></linearGradient><radialGradient cx="9.68658" cy="4.76457" r="94.5946" gradientUnits="userSpaceOnUse" id="color-3"><stop offset="0" stop-color="#f8ff50"/><stop offset="1" stop-color="#ffc571"/></radialGradient><radialGradient cx="143.79787" cy="-60.30541" r="0.00125" gradientUnits="userSpaceOnUse" id="color-4"><stop offset="0" stop-color="#ffe57d"/><stop offset="1" stop-color="#ffcdac"/></radialGradient></defs><g transform="translate(84.908,120.61081)"><g data-paper-data="{&quot;isPaintingLayer&quot;:true}" fill-rule="nonzero" stroke-linecap="butt" stroke-linejoin="miter" stroke-miterlimit="10" stroke-dasharray="" stroke-dashoffset="0" style="mix-blend-mode: normal"><path d="M-27.40837,323.54048v-357.35736h693.69369v357.35736z" fill="url(#color-1)" stroke="#00941a" stroke-width="0"/><path d="M-64.33933,387.88066v-168c0,0 86.57765,-23.17622 361.68379,-22.52252c285.92158,0.67939 406.99489,22.52252 406.99489,22.52252v168z" fill="url(#color-2)" stroke="#00941a" stroke-width="5"/><path d="M104.28118,4.76457c0,49.34076 -42.35144,89.33934 -94.59459,89.33934c-52.24315,0 -94.59459,-39.99858 -94.59459,-89.33934c0,-49.34075 42.35144,-89.33934 94.59459,-89.33934c52.24315,0 94.5946,39.99859 94.5946,89.33934z" fill="url(#color-3)" stroke="none" stroke-width="0"/><path d="M287.59572,-120.61081v0z" fill="url(#color-4)" stroke="none" stroke-width="0"/><path d="M530.40781,238.76683c-0.17448,-2.0246 -26.13873,0.54914 -20.91983,-6.63563c3.57706,-4.92448 27.72925,-5.59586 27.72925,-8.77104c0,-8.81468 -2.28723,-56.59301 -3.79334,-87.09918c-0.73929,-14.97428 -4.25295,-25.19443 -4.25295,-25.19443l-29.82847,8.33918c0,0 -11.62883,-9.4345 -8.89863,-17.36049c2.30105,-1.46524 11.85613,-2.49117 11.85613,-2.49117c0,0 14.57036,-5.21113 20.37712,-7.97336c5.44021,-2.58788 -3.74737,-28.84901 -3.74737,-28.84901l65.95916,-3.99368c0,0 -18.67238,30.31278 -18.60616,36.39094c0.07263,6.66588 1.24912,19.18692 1.24912,19.18692c0,0 14.54232,1.05009 18.21052,2.55335c2.88647,1.1829 0.83591,7.51521 0.83591,7.51521l-19.29852,11.94945c0,0 -6.32223,74.05628 -6.32223,84.2176c0,5.64783 23.89451,6.32163 28.12737,12.6846c1.5826,2.37902 -22.76155,2.14071 -23.86735,2.25064c-0.79823,0.4436 11.75761,15.07822 11.75761,15.07822c0,0 2.52693,14.03843 -1.71595,10.63761c-4.66107,-3.73602 -15.96628,-12.70913 -22.9206,-19.80685c-2.71625,-2.77226 -3.97535,-1.95565 -5.6778,-1.95565c-4.6657,0 -21.32522,17.39953 -27.41297,21.94043c-5.96028,4.44581 11.22274,-21.88487 11.15995,-22.61366z" fill="#dc7f47" stroke="#8f3f1d" stroke-width="5"/><path d="M572.25221,15.11832c-0.27039,1.14082 29.17649,34.45479 29.52796,35.67166c0.96194,3.33048 12.65939,28.29575 10.31242,34.32086c-5.18868,13.32026 -29.21959,9.8754 -37.38876,11.63879c-7.55191,1.63016 -57.40407,-6.144 -66.10074,-8.2052c-8.2596,-1.9576 -42.58107,6.60506 -48.45032,2.10399c-11.12411,-8.53097 9.9577,-32.65207 12.68016,-44.13879c4.15888,-17.54728 26.9166,-27.17743 50.83079,-21.50955c23.91419,5.6679 52.74737,-27.42904 48.58849,-9.88176z" fill="#1bce3f" stroke="#0a8c3e" stroke-width="5"/></g></g></svg>