<svg version="1.1" xmlns="http://www.w3.org/2000/svg" xmlns:xlink="http://www.w3.org/1999/xlink" width="773.67868" height="399.3754" viewBox="0,0,773.67868,399.3754"><defs><linearGradient x1="323.63173" y1="-8.99474" x2="323.63173" y2="348.36262" gradientUnits="userSpaceOnUse" id="color-1"><stop offset="0" stop-color="#00020f"/><stop offset="1" stop-color="#182690"/></linearGradient><linearGradient x1="320" y1="219.88066" x2="320" y2="387.88066" gradientUnits="userSpaceOnUse" id="color-2"><stop offset="0" stop-color="#006f4b"/><stop offset="1" stop-color="#005a41"/></linearGradient><radialGradient cx="92.13548" cy="55.50091" r="64.51359" gradientUnits="userSpaceOnUse" id="color-3"><stop offset="0" stop-color="#b6b7a1"/><stop offset="1" stop-color="#8d8076"/></radialGradient></defs><g transform="translate(66.83934,8.99474)"><g data-paper-data="{&quot;isPaintingLayer&quot;:true}" fill-rule="nonzero" stroke-linecap="butt" stroke-linejoin="miter" stroke-miterlimit="10" stroke-dasharray="" stroke-dashoffset="0" style="mix-blend-mode: normal"><path d="M-23.21511,348.36262v-357.35736h693.69369v357.35736z" fill="url(#color-1)" stroke="#00941a" stroke-width="0"/><path d="M-64.33934,387.88066v-168c0,0 86.57765,-23.17622 361.68379,-22.52252c285.92158,0.67939 406.99489,22.52252 406.99489,22.52252v168z" fill="url(#color-2)" stroke="#00504a" stroke-width="5"/><path d="M58.36897,67.07688c0,-1.38071 1.11929,-2.5 2.5,-2.5c1.38071,0 2.5,1.11929 2.5,2.5c0,1.38071 -1.11929,2.5 -2.5,2.5c-1.38071,0 -2.5,-1.11929 -2.5,-2.5z" fill="#fffefa" stroke="none" stroke-width="0.5"/><path d="M149.96056,85.0949c0,-1.38071 1.11929,-2.5 2.5,-2.5c1.38071,0 2.5,1.11929 2.5,2.5c0,1.38071 -1.11929,2.5 -2.5,2.5c-1.38071,0 -2.5,-1.11929 -2.5,-2.5z" fill="#fffefa" stroke="none" stroke-width="0.5"/><path d="M192.4981,103.11292c0,2.5 -2.5,2.5 -2.5,2.5h-3.003c0,0 -2.5,0 -2.5,-2.5c0,-2.5 2.5,-2.5 2.5,-2.5h3.003c0,0 2.5,0 2.5,2.5z" fill="#fffefa" stroke="none" stroke-width="0.5"/><path d="M265.57617,70.07988c0,-1.38071 1.11929,-2.5 2.5,-2.5c1.38071,0 2.5,1.11929 2.5,2.5c0,1.38071 -1.11929,2.5 -2.5,2.5c-1.38071,0 -2.5,-1.11929 -2.5,-2.5z" fill="#fffefa" stroke="none" stroke-width="0.5"/><path d="M312.12272,89.5994c0,-1.38071 1.11929,-2.5 2.5,-2.5c1.38071,0 2.5,1.11929 2.5,2.5c0,1.38071 -1.11929,2.5 -2.5,2.5c-1.38071,0 -2.5,-1.11929 -2.5,-2.5z" fill="#fffefa" stroke="none" stroke-width="0.5"/><path d="M366.67227,76.08589c0,2.5 -2.5,2.5 -2.5,2.5h-3.00301c0,0 -2.5,0 -2.5,-2.5c0,-2.5 2.5,-2.5 2.5,-2.5h3.00301c0,0 2.5,0 2.5,2.5z" fill="#fffefa" stroke="none" stroke-width="0.5"/><path d="M408.21882,98.60841c0,-1.38071 1.11929,-2.5 2.5,-2.5c1.38071,0 2.5,1.11929 2.5,2.5c0,1.38071 -1.11929,2.5 -2.5,2.5c-1.38071,0 -2.5,-1.11929 -2.5,-2.5z" fill="#fffefa" stroke="none" stroke-width="0.5"/><path d="M481.79239,59.56937c0,-1.38071 1.11929,-2.5 2.5,-2.5c1.38071,0 2.5,1.11929 2.5,2.5c0,1.38071 -1.11929,2.5 -2.5,2.5c-1.38071,0 -2.5,-1.11929 -2.5,-2.5z" fill="#fffefa" stroke="none" stroke-width="0.5"/><path d="M505.81642,94.10391c0,-1.38071 1.11929,-2.5 2.5,-2.5c1.38071,0 2.5,1.11929 2.5,2.5c0,1.38071 -1.11929,2.5 -2.5,2.5c-1.38071,0 -2.5,-1.11929 -2.5,-2.5z" fill="#fffefa" stroke="none" stroke-width="0.5"/><path d="M550.86146,58.06787c0,-1.38071 1.11929,-2.5 2.5,-2.5c1.38071,0 2.5,1.11929 2.5,2.5c0,1.38071 -1.11929,2.5 -2.5,2.5c-1.38071,0 -2.5,-1.11929 -2.5,-2.5z" fill="#fffefa" stroke="none" stroke-width="0.5"/><path d="M600.41101,101.61142c0,-1.38071 1.11929,-2.5 2.5,-2.5c1.38071,0 2.5,1.11929 2.5,2.5c0,1.38071 -1.11929,2.5 -2.5,2.5c-1.38071,0 -2.5,-1.11929 -2.5,-2.5z" fill="#fffefa" stroke="none" stroke-width="0.5"/><path d="M577.88848,148.15796c0,-1.38071 1.11929,-2.5 2.5,-2.5c1.38071,0 2.5,1.11929 2.5,2.5c0,1.38071 -1.11929,2.5 -2.5,2.5c-1.38071,0 -2.5,-1.11929 -2.5,-2.5z" fill="#fffefa" stroke="none" stroke-width="0.5"/><path d="M411.22182,164.67448c0,-1.38071 1.11929,-2.5 2.5,-2.5c1.38071,0 2.5,1.11929 2.5,2.5c0,1.38071 -1.11929,2.5 -2.5,2.5c-1.38071,0 -2.5,-1.11929 -2.5,-2.5z" fill="#fffefa" stroke="none" stroke-width="0.5"/><path d="M490.8014,149.65946c0,-1.38071 1.11929,-2.5 2.5,-2.5c1.38071,0 2.5,1.11929 2.5,2.5c0,1.38071 -1.11929,2.5 -2.5,2.5c-1.38071,0 -2.5,-1.11929 -2.5,-2.5z" fill="#fffefa" stroke="none" stroke-width="0.5"/><path d="M307.61822,146.65646c0,-1.38071 1.11929,-2.5 2.5,-2.5c1.38071,0 2.5,1.11929 2.5,2.5c0,1.38071 -1.11929,2.5 -2.5,2.5c-1.38071,0 -2.5,-1.11929 -2.5,-2.5z" fill="#fffefa" stroke="none" stroke-width="0.5"/><path d="M172.48308,161.67147c0,-1.38071 1.11929,-2.5 2.5,-2.5c1.38071,0 2.5,1.11929 2.5,2.5c0,1.38071 -1.11929,2.5 -2.5,2.5c-1.38071,0 -2.5,-1.11929 -2.5,-2.5z" fill="#fffefa" stroke="none" stroke-width="0.5"/><path d="M240.05065,148.15796c0,-1.38071 1.11929,-2.5 2.5,-2.5c1.38071,0 2.5,1.11929 2.5,2.5c0,1.38071 -1.11929,2.5 -2.5,2.5c-1.38071,0 -2.5,-1.11929 -2.5,-2.5z" fill="#fffefa" stroke="none" stroke-width="0.5"/><path d="M40.35095,149.65946c0,-1.38071 1.11929,-2.5 2.5,-2.5c1.38071,0 2.5,1.11929 2.5,2.5c0,1.38071 -1.11929,2.5 -2.5,2.5c-1.38071,0 -2.5,-1.11929 -2.5,-2.5z" fill="#fffefa" stroke="none" stroke-width="0.5"/><path d="M103.41401,143.65346c0,-1.38071 1.11929,-2.5 2.5,-2.5c1.38071,0 2.5,1.11929 2.5,2.5c0,1.38071 -1.11929,2.5 -2.5,2.5c-1.38071,0 -2.5,-1.11929 -2.5,-2.5z" fill="#fffefa" stroke="none" stroke-width="0.5"/><path d="M126.94958,109.81465c-45.87763,11.21353 -98.6556,-4.01318 -117.88289,-34.00983c-19.22729,-29.99664 2.37708,-63.4041 48.25471,-74.61764c45.87764,-11.21354 -34.9725,38.35857 -15.74521,68.35522c19.22729,29.99665 131.25103,29.05871 85.3734,40.27225z" data-paper-data="{&quot;index&quot;:null}" fill="url(#color-3)" stroke="none" stroke-width="0"/></g></g></svg>