<svg version="1.1" xmlns="http://www.w3.org/2000/svg" xmlns:xlink="http://www.w3.org/1999/xlink" width="79.4898" height="79.48981" viewBox="0,0,79.4898,79.48981"><g transform="translate(-280.2551,-140.2551)"><g data-paper-data="{&quot;isPaintingLayer&quot;:true}" fill-rule="nonzero" stroke="#8f3100" stroke-linejoin="miter" stroke-miterlimit="10" stroke-dasharray="" stroke-dashoffset="0" style="mix-blend-mode: normal"><path d="M282.7551,208.2315c0,-15.59597 0,-46.80513 0,-55.7377c0,-4.67818 5.00717,-9.7387 9.64924,-9.7387c9.05561,0 41.20195,0 56.55738,0c5.04942,0 8.28318,3.86184 8.28318,7.68952c0,8.29322 0,40.49095 0,56.96721c0,5.9373 -3.40442,9.83308 -8.69301,9.83308c-15.83749,0 -48.5722,0 -57.37705,0c-4.30698,0 -8.41974,-3.54801 -8.41974,-9.01341z" fill="#ff7d1b" stroke-width="5" stroke-linecap="butt"/><path d="M294.22681,191.59794v-23.19587h51.54639v23.19588z" fill="#ff7d1b" stroke-width="5" stroke-linecap="butt"/><path d="M317.07857,184.18034c0,0 3.5503,-1.5613 3.5503,-2.51433c0,-0.6842 -2.68093,-3.98984 -3.64025,-4.97211c-0.80158,-0.82075 4.08405,-2.35287 4.08405,-2.35287" fill="none" stroke-width="2.5" stroke-linecap="round"/><path d="M319.26641,171.75477l-0.44379,15.23669" fill="none" stroke-width="1.5" stroke-linecap="round"/></g></g></svg>