<svg version="1.1" xmlns="http://www.w3.org/2000/svg" xmlns:xlink="http://www.w3.org/1999/xlink" width="791.74734" height="520.00048" viewBox="0,0,791.74734,520.00048"><defs><linearGradient x1="319.35974" y1="-31.68916" x2="319.35974" y2="325.6682" gradientUnits="userSpaceOnUse" id="color-1"><stop offset="0" stop-color="#69ebff"/><stop offset="1" stop-color="#d9f2ff"/></linearGradient><linearGradient x1="320.00003" y1="219.88066" x2="320.00003" y2="387.88066" gradientUnits="userSpaceOnUse" id="color-2"><stop offset="0" stop-color="#83e242"/><stop offset="1" stop-color="#54ab30"/></linearGradient><radialGradient cx="9.68658" cy="4.76457" r="94.5946" gradientUnits="userSpaceOnUse" id="color-3"><stop offset="0" stop-color="#f8ff50"/><stop offset="1" stop-color="#ffc571"/></radialGradient><radialGradient cx="188.84292" cy="-69.31442" r="0.00125" gradientUnits="userSpaceOnUse" id="color-4"><stop offset="0" stop-color="#ffe57d"/><stop offset="1" stop-color="#ffcdac"/></radialGradient></defs><g transform="translate(84.908,129.61982)"><g data-paper-data="{&quot;isPaintingLayer&quot;:true}" fill-rule="nonzero" stroke-linejoin="miter" stroke-miterlimit="10" stroke-dasharray="" stroke-dashoffset="0" style="mix-blend-mode: normal"><path d="M-27.4871,325.6682v-357.35736h693.69369v357.35736z" fill="url(#color-1)" stroke="#00941a" stroke-width="0" stroke-linecap="butt"/><path d="M493.72068,60.03834l1.41004,-40.60914" fill="none" stroke="#a6a6a6" stroke-width="5" stroke-linecap="round"/><path d="M559.25807,218.18581v-55.94222h78.97436v55.94222z" fill="#efc75e" stroke="#a36c24" stroke-width="5" stroke-linecap="butt"/><path d="M578.06981,217.95131l0.17094,-55.38461" fill="none" stroke="#e03131" stroke-width="5" stroke-linecap="round"/><path d="M616.53134,217.26755l0.8547,-55.21367" fill="none" stroke="#e03131" stroke-width="5" stroke-linecap="round"/><path d="M560.45235,185.37474l-5.1292,-2.02253" fill="none" stroke="#a36c24" stroke-width="3" stroke-linecap="round"/><path d="M560.61263,171.65044l-2.72488,1.44466" fill="none" stroke="#a36c24" stroke-width="3" stroke-linecap="round"/><path d="M562.05522,165.87178l-6.5718,-1.01127" fill="none" stroke="#a36c24" stroke-width="3" stroke-linecap="round"/><path d="M563.17724,163.99372l1.60288,-6.50099" fill="none" stroke="#a36c24" stroke-width="3" stroke-linecap="round"/><path d="M573.75623,164.28265l6.73208,-5.48972" fill="none" stroke="#a36c24" stroke-width="3" stroke-linecap="round"/><path d="M588.98356,164.42712l-0.48086,-6.50099" fill="none" stroke="#a36c24" stroke-width="3" stroke-linecap="round"/><path d="M611.10326,165.00498l3.36604,-7.80118" fill="none" stroke="#a36c24" stroke-width="3" stroke-linecap="round"/><path d="M632.42152,165.43838l-2.24402,-8.09011" fill="none" stroke="#a36c24" stroke-width="3" stroke-linecap="round"/><path d="M635.46699,178.72929l7.37323,1.44467" fill="none" stroke="#a36c24" stroke-width="3" stroke-linecap="round"/><path d="M634.18468,188.69747l7.05266,-1.01126" fill="none" stroke="#a36c24" stroke-width="3" stroke-linecap="round"/><path d="M637.23016,195.19845l7.8541,2.45593" fill="none" stroke="#a36c24" stroke-width="3" stroke-linecap="round"/><path d="M642.9084,203.89578l-7.78409,1.07934" fill="none" stroke="#a36c24" stroke-width="3" stroke-linecap="round"/><path d="M553.89039,202.09686l6.58653,-2.87826" fill="none" stroke="#a36c24" stroke-width="3" stroke-linecap="round"/><path d="M558.68058,192.74253l-4.59062,-1.79892" fill="none" stroke="#a36c24" stroke-width="3" stroke-linecap="round"/><path d="M-64.33934,387.88066v-168c0,0 86.57765,-23.17622 361.68379,-22.52252c285.92158,0.67939 406.99489,22.52252 406.99489,22.52252v168z" fill="url(#color-2)" stroke="#00941a" stroke-width="5" stroke-linecap="butt"/><path d="M104.28119,4.76457c0,49.34076 -42.35144,89.33934 -94.59459,89.33934c-52.24315,0 -94.59459,-39.99858 -94.59459,-89.33934c0,-49.34075 42.35144,-89.33934 94.59459,-89.33934c52.24315,0 94.5946,39.99859 94.5946,89.33934z" fill="url(#color-3)" stroke="none" stroke-width="0" stroke-linecap="butt"/><path d="M332.64077,-129.61982z" fill="url(#color-4)" stroke="none" stroke-width="0" stroke-linecap="butt"/><path d="M402.49321,229.19132v-168h154v168z" fill="#8f8f8f" stroke="#5e5e5e" stroke-width="5" stroke-linecap="butt"/><path d="M400.63614,66.51371v-14.30143h158.49918v14.30143z" fill="#8f8f8f" stroke="#5e5e5e" stroke-width="5" stroke-linecap="butt"/><path d="M409.29473,52.62705v-13.10044h21.6762v13.10044z" fill="#8f8f8f" stroke="#5e5e5e" stroke-width="2.5" stroke-linecap="butt"/><path d="M523.09478,52.62705v-13.10044h21.67621v13.10044z" fill="#8f8f8f" stroke="#5e5e5e" stroke-width="2.5" stroke-linecap="butt"/><path d="M466.19474,52.62705v-13.10044h21.67621v13.10044z" fill="#8f8f8f" stroke="#5e5e5e" stroke-width="2.5" stroke-linecap="butt"/><path d="M458.00861,227.40464c0,0 -2.12685,-17.15763 0.22442,-40.61939c1.06944,-10.67128 12.24455,-21.60151 22.06775,-20.69512c10.79314,0.99588 20.27975,14.65357 20.57139,20.4707c0.63297,12.62599 -0.22442,40.84381 -0.22442,40.84381z" fill="#000000" stroke="#5e5e5e" stroke-width="5" stroke-linecap="butt"/><path d="M342.28698,231.8069v-209.02089h59.40594v209.0209z" fill="#8f8f8f" stroke="#5e5e5e" stroke-width="5" stroke-linecap="butt"/><path d="M337.33648,30.48677v-14.30143h70.95709v14.30143z" fill="#8f8f8f" stroke="#5e5e5e" stroke-width="5" stroke-linecap="butt"/><path d="M341.21277,16.60011v-13.10043h9.70403v13.10044z" fill="#8f8f8f" stroke="#5e5e5e" stroke-width="2.5" stroke-linecap="butt"/><path d="M392.15891,16.60012v-13.10044h9.70403v13.10044z" fill="#8f8f8f" stroke="#5e5e5e" stroke-width="2.5" stroke-linecap="butt"/><path d="M366.68583,16.60012v-13.10044h9.70403v13.10044z" fill="#8f8f8f" stroke="#5e5e5e" stroke-width="2.5" stroke-linecap="butt"/><path d="M557.2628,231.8069v-209.02089h59.40594v209.0209z" fill="#8f8f8f" stroke="#5e5e5e" stroke-width="5" stroke-linecap="butt"/><path d="M552.31232,30.48677v-14.30143h70.95709v14.30143z" fill="#8f8f8f" stroke="#5e5e5e" stroke-width="5" stroke-linecap="butt"/><path d="M556.18861,16.60011v-13.10043h9.70403v13.10044z" fill="#8f8f8f" stroke="#5e5e5e" stroke-width="2.5" stroke-linecap="butt"/><path d="M607.13474,16.60012v-13.10044h9.70403v13.10044z" fill="#8f8f8f" stroke="#5e5e5e" stroke-width="2.5" stroke-linecap="butt"/><path d="M581.66167,16.60012v-13.10044h9.70403v13.10044z" fill="#8f8f8f" stroke="#5e5e5e" stroke-width="2.5" stroke-linecap="butt"/><path d="M237.12369,235.09403v-55.94222h78.97435v55.94222z" fill="#efc75e" stroke="#a36c24" stroke-width="5" stroke-linecap="butt"/><path d="M255.93543,234.85953l0.17094,-55.38461" fill="none" stroke="#e03131" stroke-width="5" stroke-linecap="round"/><path d="M295.25166,178.96209l-0.8547,55.21367" fill="none" stroke="#e03131" stroke-width="5" stroke-linecap="round"/><path d="M238.31797,202.28295l-5.12921,-2.02253" fill="none" stroke="#a36c24" stroke-width="3" stroke-linecap="round"/><path d="M238.47826,188.55865l-2.72489,1.44466" fill="none" stroke="#a36c24" stroke-width="3" stroke-linecap="round"/><path d="M239.92084,182.78l-6.57179,-1.01127" fill="none" stroke="#a36c24" stroke-width="3" stroke-linecap="round"/><path d="M241.04286,180.90193l1.60288,-6.50098" fill="none" stroke="#a36c24" stroke-width="3" stroke-linecap="round"/><path d="M251.62185,181.19086l6.73208,-5.48972" fill="none" stroke="#a36c24" stroke-width="3" stroke-linecap="round"/><path d="M266.84918,181.33533l-0.48086,-6.50098" fill="none" stroke="#a36c24" stroke-width="3" stroke-linecap="round"/><path d="M288.96888,181.91319l3.36604,-7.80118" fill="none" stroke="#a36c24" stroke-width="3" stroke-linecap="round"/><path d="M310.28713,182.3466l-2.24403,-8.09012" fill="none" stroke="#a36c24" stroke-width="3" stroke-linecap="round"/><path d="M313.33261,195.6375l7.37323,1.44466" fill="none" stroke="#a36c24" stroke-width="3" stroke-linecap="round"/><path d="M312.0503,205.60568l7.05266,-1.01126" fill="none" stroke="#a36c24" stroke-width="3" stroke-linecap="round"/><path d="M315.09576,212.10666l7.8541,2.45593" fill="none" stroke="#a36c24" stroke-width="3" stroke-linecap="round"/><path d="M312.98992,221.88333l7.78409,-1.07935" fill="none" stroke="#a36c24" stroke-width="3" stroke-linecap="round"/><path d="M238.34254,216.12682l-6.58653,2.87826" fill="none" stroke="#a36c24" stroke-width="3" stroke-linecap="round"/><path d="M236.54621,209.65074l-4.59061,-1.79891" fill="none" stroke="#a36c24" stroke-width="3" stroke-linecap="round"/><path d="M49.59625,305.94749v-55.94222h78.97435v55.94222z" fill="#efc75e" stroke="#a36c24" stroke-width="5" stroke-linecap="butt"/><path d="M68.40797,305.71299l0.17094,-55.38462" fill="none" stroke="#e03131" stroke-width="5" stroke-linecap="round"/><path d="M106.86952,305.02922l0.8547,-55.21367" fill="none" stroke="#e03131" stroke-width="5" stroke-linecap="round"/><path d="M50.79053,273.13641l-5.12921,-2.02253" fill="none" stroke="#a36c24" stroke-width="3" stroke-linecap="round"/><path d="M48.22592,260.85677l2.72489,-1.44466" fill="none" stroke="#a36c24" stroke-width="3" stroke-linecap="round"/><path d="M52.3934,253.63346l-6.5718,-1.01127" fill="none" stroke="#a36c24" stroke-width="3" stroke-linecap="round"/><path d="M53.51542,251.75539l1.60288,-6.50098" fill="none" stroke="#a36c24" stroke-width="3" stroke-linecap="round"/><path d="M64.0944,252.04433l6.73208,-5.48972" fill="none" stroke="#a36c24" stroke-width="3" stroke-linecap="round"/><path d="M79.32174,252.18879l-0.48086,-6.50098" fill="none" stroke="#a36c24" stroke-width="3" stroke-linecap="round"/><path d="M101.44144,252.76666l3.36605,-7.80118" fill="none" stroke="#a36c24" stroke-width="3" stroke-linecap="round"/><path d="M122.7597,253.20006l-2.24402,-8.09011" fill="none" stroke="#a36c24" stroke-width="3" stroke-linecap="round"/><path d="M125.80517,266.49096l7.37323,1.44466" fill="none" stroke="#a36c24" stroke-width="3" stroke-linecap="round"/><path d="M131.57553,275.44788l-7.05266,1.01126" fill="none" stroke="#a36c24" stroke-width="3" stroke-linecap="round"/><path d="M135.42243,285.41606l-7.8541,-2.45593" fill="none" stroke="#a36c24" stroke-width="3" stroke-linecap="round"/><path d="M133.24657,291.65745l-7.78409,1.07934" fill="none" stroke="#a36c24" stroke-width="3" stroke-linecap="round"/><path d="M44.22856,289.85854l6.58653,-2.87826" fill="none" stroke="#a36c24" stroke-width="3" stroke-linecap="round"/><path d="M49.01877,280.5042l-4.59061,-1.79892" fill="none" stroke="#a36c24" stroke-width="3" stroke-linecap="round"/><path d="M451.03003,16.16875c-1.58891,-4.36992 0.42983,-24.55087 0.42983,-24.55087c0,0 6.67794,0 11.59765,0c8.60705,0 35.49766,0 35.49766,0c0,0 1.60413,7.95949 0.42845,17.78607c-1.17568,9.82658 -6.36633,8.05466 -7.0101,7.91334c-2.98938,-0.6562 -6.35442,-1.07969 -11.99293,-1.07969c-3.93149,0 -11.70367,5.20166 -17.44866,5.83134c-6.66354,0.73035 -9.91299,-1.53027 -11.50191,-5.90019z" fill="#f51a1a" stroke="#8a1212" stroke-width="5" stroke-linecap="butt"/></g></g></svg>