<svg version="1.1" xmlns="http://www.w3.org/2000/svg" xmlns:xlink="http://www.w3.org/1999/xlink" width="203.96826" height="205.40091" viewBox="0,0,203.96826,205.40091"><defs><radialGradient cx="321" cy="180.00001" r="95.31838" gradientUnits="userSpaceOnUse" id="color-1"><stop offset="0" stop-color="#f0ff82" stop-opacity="0.86667"/><stop offset="1" stop-color="#f0ff82" stop-opacity="0"/></radialGradient></defs><g transform="translate(-218.01587,-77.29955)"><g data-paper-data="{&quot;isPaintingLayer&quot;:true}" fill-rule="nonzero" stroke-linejoin="miter" stroke-miterlimit="10" stroke-dasharray="" stroke-dashoffset="0" style="mix-blend-mode: normal"><path d="M303.21008,257.09932c-3.91316,1.78291 -21.09244,2.39391 -18.83673,-6.62891c1.69256,-6.77024 9.26743,-4.24274 13.97468,-3.93199c0.39218,0.02589 1.87977,-0.02235 3.31411,0.10473c0,-5.05864 0,-10.27602 0,-15.13193c0,0 0,-2.5 2.5,-2.5c2.5,0 2.5,2.5 2.5,2.5c0,6.74826 0,13.49651 0,20.24477v0.6981c0,0 0,1.64983 -1.34026,2.26897c-0.18749,0.92147 -0.7141,1.73945 -2.1118,2.37627z" fill="#000000" stroke="none" stroke-width="0.5" stroke-linecap="butt"/><path d="M333.01421,254.84433c-1.34026,-0.61914 -1.34027,-2.26897 -1.34027,-2.26897v-0.6981c0,-6.74825 0,-13.49651 0,-20.24476c0,0 0,-2.5 2.5,-2.5c2.5,0 2.5,2.5 2.5,2.5c0,4.85591 0,10.07329 0,15.13193c1.43434,-0.12707 2.92194,-0.07883 3.31412,-0.10473c4.70725,-0.31076 12.28211,-2.83826 13.97467,3.93199c2.2557,9.02283 -14.92356,8.41182 -18.83673,6.62892c-1.39769,-0.63682 -1.92431,-1.4548 -2.1118,-2.37627z" data-paper-data="{&quot;index&quot;:null}" fill="#000000" stroke="none" stroke-width="0.5" stroke-linecap="butt"/><path d="M254.79417,230.58323v-18.5h131.66667v18.5z" fill="#fffa6f" stroke="#adaa54" stroke-width="5" stroke-linecap="butt"/><path d="M275.96084,211.34899c0,0 11.59681,-28.12165 13.77685,-33.40813c0.6785,-1.64533 1.33451,-3.23611 1.33451,-3.23611l-29.96433,-16.84996l35.71249,-6.93475l24.53734,-50.49047l23.66227,50.10229l35.78978,7.15813l-27.77742,14.77101l10.42853,38.38798z" fill="#fffa6f" stroke="#adaa54" stroke-width="5" stroke-linecap="butt"/><path d="M352.46083,187.41657l-66.66666,0.33333l4.33333,-13.33333h59.66667z" fill="#ffffff" stroke="#adaa54" stroke-width="5" stroke-linecap="round"/><path d="M341.46083,148.08323l-41.33334,-1.33334l5.27899,-9.22871l33.05435,-0.43795z" fill="#ffffff" stroke="#adaa54" stroke-width="5" stroke-linecap="round"/><path d="M309.7669,160.20223c-0.44584,1.78337 -0.22847,3.59546 -0.49061,5.39662c-0.55938,3.84351 -5.41548,2.95458 -6.14473,-0.32707c-0.42333,-1.90498 -0.10577,-8.40251 0.8031,-9.91729c2.23662,-3.7277 5.19069,-0.00793 5.83224,2.55827z" fill="#000000" stroke="none" stroke-width="0.5" stroke-linecap="butt"/><path d="M335.78994,160.02336c-0.46875,1.87503 0.04937,4.28046 -1.48584,5.81304c-4.86702,4.8587 -6.9538,-6.11596 -5.17334,-9.28116c0.79151,-1.40709 1.18018,-3.40132 3.31309,-3.23725c0.97383,0.07491 4.30501,1.97969 3.34608,3.41808z" fill="#000000" stroke="none" stroke-width="0.5" stroke-linecap="butt"/><path d="M326.40379,182.284c0.05665,-0.04474 0.11327,-0.08968 0.16987,-0.13477zM326.16896,182.46826c0.05759,-0.10003 1.27111,-2.14856 3.40012,-0.95778c2.1819,1.22036 0.96155,3.40227 0.96155,3.40227l-0.88878,1.18443c-4.79666,3.65317 -9.60518,5.98865 -15.907,4.14085c-1.08644,-0.31856 -4.63786,-4.09133 -5.28251,-4.73896c0,0 -1.7627,-1.77282 0.01012,-3.53552c1.77282,-1.7627 3.53552,0.01012 3.53552,0.01012c1.20257,1.2109 1.95966,3.19986 3.61141,3.62904c4.23152,1.09952 7.44864,-0.71056 10.55957,-3.13446z" fill="#000000" stroke="none" stroke-width="0.5" stroke-linecap="butt"/><path d="M421.98413,180.66667c0,56.71989 -51.47136,102.03379 -100.98413,102.03379c-49.51277,0 -102.98413,-45.98056 -102.98413,-102.70046c0,-23.70789 12.34581,-52.20619 24.12425,-69.58807c16.40087,-24.20336 50.04255,-33.11238 78.85988,-33.11238c49.51277,0 99.6508,25.98056 99.6508,82.70045z" fill="url(#color-1)" stroke="none" stroke-width="0" stroke-linecap="butt"/></g></g></svg>