<svg version="1.1" xmlns="http://www.w3.org/2000/svg" xmlns:xlink="http://www.w3.org/1999/xlink" width="148.83561" height="60.77299" viewBox="0,0,148.83561,60.77299"><g transform="translate(-246.02759,-149.70263)"><g data-paper-data="{&quot;isPaintingLayer&quot;:true}" fill-rule="nonzero" stroke-linejoin="miter" stroke-miterlimit="10" stroke-dasharray="" stroke-dashoffset="0" style="mix-blend-mode: normal"><path d="M248.52759,207.97562v-55.77299h143.83561v55.77299z" fill="#8b8b8b" stroke="#484848" stroke-width="5" stroke-linecap="butt"/><text transform="translate(283.33444,183.46138) scale(0.38921,0.5)" font-size="40" xml:space="preserve" fill="#484848" fill-rule="nonzero" stroke="none" stroke-width="1" stroke-linecap="butt" stroke-linejoin="miter" stroke-miterlimit="10" stroke-dasharray="" stroke-dashoffset="0" font-family="Pixel" font-weight="normal" text-anchor="start" style="mix-blend-mode: normal"><tspan x="0" dy="0">Out of stock</tspan></text><text transform="translate(256.97543,199.56966) scale(0.20978,0.26949)" font-size="40" xml:space="preserve" fill="#484848" fill-rule="nonzero" stroke="none" stroke-width="1" stroke-linecap="butt" stroke-linejoin="miter" stroke-miterlimit="10" stroke-dasharray="" stroke-dashoffset="0" font-family="Pixel" font-weight="normal" text-anchor="start" style="mix-blend-mode: normal"><tspan x="0" dy="0">please wait</tspan></text><path d="M268.30696,175.8916l3.59172,6.28285l-3.98001,2.64541l-3.53576,-5.76186" fill="#ffffff" stroke="#000000" stroke-width="2.5" stroke-linecap="round"/><path d="M264.5211,179.19836l-3.96069,3.23835l-2.09698,-19.53883l14.06816,9.62525l-4.16643,3.44564" fill="#ffffff" stroke="#000000" stroke-width="2.5" stroke-linecap="round"/><path d="M276.89869,167.07377l3.59172,6.28285l-3.98001,2.64541l-3.53576,-5.76186" fill="#ffffff" stroke="#000000" stroke-width="2.5" stroke-linecap="round"/><path d="M273.11283,170.38053l-3.96069,3.23835l-2.09698,-19.53883l14.06816,9.62525l-4.16643,3.44564" fill="#ffffff" stroke="#000000" stroke-width="2.5" stroke-linecap="round"/><path d="M259.78321,181.82386l-0.30734,7.2305l-4.77751,0.11857l0.07716,-6.75978" fill="#ffffff" stroke="#000000" stroke-width="2.5" stroke-linecap="round"/><path d="M254.81769,182.60555l-5.07703,0.63066l8.63403,-17.65267l6.77823,15.64014l-5.36157,0.69649" fill="#ffffff" stroke="#000000" stroke-width="2.5" stroke-linecap="round"/></g></g></svg>