<svg version="1.1" xmlns="http://www.w3.org/2000/svg" xmlns:xlink="http://www.w3.org/1999/xlink" width="791.74736" height="510.99147" viewBox="0,0,791.74736,510.99147"><defs><linearGradient x1="319.12722" y1="-31.01576" x2="319.12722" y2="326.3416" gradientUnits="userSpaceOnUse" id="color-1"><stop offset="0" stop-color="#40e4ff"/><stop offset="1" stop-color="#a7e0ff"/></linearGradient><linearGradient x1="320" y1="219.88066" x2="320" y2="387.88066" gradientUnits="userSpaceOnUse" id="color-2"><stop offset="0" stop-color="#43ff41"/><stop offset="1" stop-color="#00ca43"/></linearGradient><radialGradient cx="9.68656" cy="4.76457" r="94.5946" gradientUnits="userSpaceOnUse" id="color-3"><stop offset="0" stop-color="#f8ff50"/><stop offset="1" stop-color="#ffc571"/></radialGradient><radialGradient cx="143.79785" cy="-60.30541" r="0.00125" gradientUnits="userSpaceOnUse" id="color-4"><stop offset="0" stop-color="#ffe57d"/><stop offset="1" stop-color="#ffcdac"/></radialGradient></defs><g transform="translate(84.90802,120.61081)"><g data-paper-data="{&quot;isPaintingLayer&quot;:true}" fill-rule="nonzero" stroke-linecap="butt" stroke-linejoin="miter" stroke-miterlimit="10" stroke-dasharray="" stroke-dashoffset="0" style="mix-blend-mode: normal"><path d="M-27.71962,326.3416v-357.35736h693.69369v357.35736z" fill="url(#color-1)" stroke="#00941a" stroke-width="0"/><path d="M-64.33934,387.88066v-168c0,0 86.57765,-23.17622 361.68379,-22.52252c285.92158,0.67939 406.99489,22.52252 406.99489,22.52252v168z" fill="url(#color-2)" stroke="#00941a" stroke-width="5"/><path d="M104.28116,4.76457c0,49.34076 -42.35144,89.33934 -94.59459,89.33934c-52.24315,0 -94.59459,-39.99858 -94.59459,-89.33934c0,-49.34075 42.35144,-89.33934 94.59459,-89.33934c52.24315,0 94.5946,39.99859 94.5946,89.33934z" fill="url(#color-3)" stroke="none" stroke-width="0"/><path d="M287.5957,-120.61081v0v0v0z" fill="url(#color-4)" stroke="none" stroke-width="0"/></g></g></svg>