<svg version="1.1" xmlns="http://www.w3.org/2000/svg" xmlns:xlink="http://www.w3.org/1999/xlink" width="136.66667" height="157.86033" viewBox="0,0,136.66667,157.86033"><g transform="translate(-251.66667,-99.81232)"><g data-paper-data="{&quot;isPaintingLayer&quot;:true}" fill-rule="nonzero" stroke-linejoin="miter" stroke-miterlimit="10" stroke-dasharray="" stroke-dashoffset="0" style="mix-blend-mode: normal"><path d="M302.58258,256.4718c-3.91316,1.78291 -21.09244,2.39391 -18.83673,-6.62891c1.69256,-6.77024 9.26743,-4.24274 13.97468,-3.93199c0.39218,0.02589 1.87977,-0.02235 3.31411,0.10473c0,-5.05864 0,-10.27602 0,-15.13193c0,0 0,-2.5 2.5,-2.5c2.5,0 2.5,2.5 2.5,2.5c0,6.74826 0,13.49651 0,20.24477v0.6981c0,0 0,1.64983 -1.34026,2.26897c-0.18749,0.92147 -0.7141,1.73945 -2.1118,2.37627z" fill="#000000" stroke="none" stroke-width="0.5" stroke-linecap="butt"/><path d="M332.38669,254.21681c-1.34026,-0.61914 -1.34027,-2.26897 -1.34027,-2.26897v-0.6981c0,-6.74825 0,-13.49651 0,-20.24476c0,0 0,-2.5 2.5,-2.5c2.5,0 2.5,2.5 2.5,2.5c0,4.85591 0,10.07329 0,15.13193c1.43434,-0.12707 2.92194,-0.07883 3.31412,-0.10473c4.70725,-0.31076 12.28211,-2.83826 13.97467,3.93199c2.2557,9.02283 -14.92356,8.41182 -18.83673,6.62892c-1.39769,-0.63682 -1.92431,-1.4548 -2.1118,-2.37627z" data-paper-data="{&quot;index&quot;:null}" fill="#000000" stroke="none" stroke-width="0.5" stroke-linecap="butt"/><path d="M254.16668,227.71004v-18.5h131.66667v18.5z" fill="#ff8221" stroke="#ad5816" stroke-width="5" stroke-linecap="butt"/><path d="M275.33333,208.96004l37,-106.5l16.10073,-0.13269l34.39927,106.1327z" fill="#ff8221" stroke="#ad5816" stroke-width="5" stroke-linecap="butt"/><path d="M351.83332,184.54338l-66.66666,0.33333l4.33333,-13.33333h59.66667z" fill="#ffffff" stroke="#ad5816" stroke-width="5" stroke-linecap="round"/><path d="M341.35692,145.73361l-41.33334,-1.33334l2.33334,-10.33333l36,0.66667z" fill="#ffffff" stroke="#ad5816" stroke-width="5" stroke-linecap="round"/><path d="M309.13939,159.57471c-0.44584,1.78337 -0.22847,3.59546 -0.49061,5.39662c-0.55938,3.84351 -5.41548,2.95458 -6.14473,-0.32707c-0.42333,-1.90498 -0.10577,-8.40251 0.8031,-9.91729c2.23662,-3.7277 5.19069,-0.00793 5.83224,2.55827z" fill="#000000" stroke="none" stroke-width="0.5" stroke-linecap="butt"/><path d="M335.16244,159.39584c-0.46875,1.87503 0.04937,4.28046 -1.48584,5.81304c-4.86702,4.8587 -6.9538,-6.11596 -5.17334,-9.28116c0.79151,-1.40709 1.18018,-3.40132 3.31309,-3.23725c0.97383,0.07491 4.30501,1.97969 3.34608,3.41808z" fill="#000000" stroke="none" stroke-width="0.5" stroke-linecap="butt"/><path d="M325.94615,189.24802c-0.0566,-0.04509 -0.11322,-0.09003 -0.16987,-0.13477zM325.54146,188.929c-3.11093,-2.4239 -6.32805,-4.23398 -10.55957,-3.13446c-1.65175,0.42918 -2.40884,2.41814 -3.61141,3.62904c0,0 -1.7627,1.77282 -3.53552,0.01012c-1.77282,-1.7627 -0.01012,-3.53552 -0.01012,-3.53552c0.64465,-0.64763 4.19607,-4.4204 5.28251,-4.73896c6.30182,-1.8478 11.11034,0.48768 15.907,4.14085l0.88878,1.18443c0,0 1.22035,2.18191 -0.96155,3.40227c-2.12901,1.19078 -3.34253,-0.85775 -3.40012,-0.95778z" data-paper-data="{&quot;index&quot;:null}" fill="#000000" stroke="none" stroke-width="0.5" stroke-linecap="butt"/></g></g></svg>