<svg version="1.1" xmlns="http://www.w3.org/2000/svg" xmlns:xlink="http://www.w3.org/1999/xlink" width="773.67868" height="510.99147" viewBox="0,0,773.67868,510.99147"><defs><linearGradient x1="321.4506" y1="347.00328" x2="321.4506" y2="-10.35408" gradientUnits="userSpaceOnUse" id="color-1"><stop offset="0" stop-color="#000526"/><stop offset="1" stop-color="#000000"/></linearGradient><radialGradient cx="404.93514" cy="80.12293" r="45.26912" gradientUnits="userSpaceOnUse" id="color-2"><stop offset="0" stop-color="#f8ff50"/><stop offset="1" stop-color="#ffc571"/></radialGradient><radialGradient cx="92.37103" cy="179.75723" r="74.62244" gradientUnits="userSpaceOnUse" id="color-3"><stop offset="0" stop-color="#4f9eff"/><stop offset="1" stop-color="#6fb8ff"/></radialGradient><linearGradient x1="320.00005" y1="219.88066" x2="320.00005" y2="387.88066" gradientUnits="userSpaceOnUse" id="color-4"><stop offset="0" stop-color="#949494"/><stop offset="1" stop-color="#575757"/></linearGradient><radialGradient cx="143.7979" cy="-60.3054" r="0.00125" gradientUnits="userSpaceOnUse" id="color-5"><stop offset="0" stop-color="#ffe57d"/><stop offset="1" stop-color="#ffcdac"/></radialGradient><radialGradient cx="404.25547" cy="80.12293" r="62.31491" gradientUnits="userSpaceOnUse" id="color-6"><stop offset="0" stop-color="#ffc571"/><stop offset="1" stop-color="#ffc571" stop-opacity="0"/></radialGradient></defs><g transform="translate(66.83934,120.61081)"><g data-paper-data="{&quot;isPaintingLayer&quot;:true}" fill-rule="nonzero" stroke-linecap="butt" stroke-linejoin="miter" stroke-miterlimit="10" stroke-dasharray="" stroke-dashoffset="0" style="mix-blend-mode: normal"><path d="M668.29745,-10.35408v357.35736h-693.69369v-357.35736z" data-paper-data="{&quot;index&quot;:null}" fill="url(#color-1)" stroke="#00941a" stroke-width="0"/><path d="M450.20427,80.12293c0,23.61248 -20.26767,42.75417 -45.26912,42.75417c-25.00144,0 -45.26912,-19.14169 -45.26912,-42.75417c0,-23.61248 20.26767,-42.75417 45.26912,-42.75417c25.00144,0 45.26912,19.14169 45.26912,42.75417z" fill="url(#color-2)" stroke="none" stroke-width="0"/><path d="M17.74858,179.75723c0,-41.21284 33.40961,-74.62244 74.62244,-74.62244c41.21284,0 74.62244,33.40961 74.62244,74.62244c0,41.21284 -33.40961,74.62244 -74.62244,74.62244c-41.21284,0 -74.62244,-33.40961 -74.62244,-74.62244z" fill="url(#color-3)" stroke="none" stroke-width="0"/><path d="M-64.33934,387.88066v-168l92.89088,-12.97338l118.50451,4.90638l151.21167,-14.45552l156.1875,20.10056l184.76396,-10.20667l65.12016,12.62862v168z" fill="url(#color-4)" stroke="#5f5c5c" stroke-width="5"/><path d="M287.59575,-120.61081z" fill="url(#color-5)" stroke="none" stroke-width="0"/><path d="M41.68675,163.18389c-0.24702,0 -0.48567,-0.03583 -0.71105,-0.10257c-0.06489,-0.00147 -0.12973,-0.00303 -0.19454,-0.0047c-2.05202,1.30953 -1.49606,2.47016 -1.48455,4.94248c0.02579,5.5396 -0.37265,10.846 -0.81502,16.30046c-0.13691,1.68809 0.50812,3.87464 -0.73223,5.02786c-3.75278,3.48917 -10.26899,-0.69168 -11.4957,-4.3034c-0.13651,-0.40193 -0.10727,-6.47454 -0.10727,-7.24464c0,-6.18034 -0.40387,-12.13645 0.74597,-18.05602c-0.05886,-0.02545 -0.11853,-0.05324 -0.17903,-0.08349c-2.23607,-1.11803 -1.11803,-3.3541 -1.11803,-3.3541l0.55109,-0.51201c0.09452,-3.51099 1.0165,-7.96235 4.31997,-10.19377c1.17815,-0.79582 2.72925,-0.79789 4.09387,-1.19684c3.50425,-0.85706 6.53118,-0.35522 9.98616,-0.85739c2.53679,-0.36871 4.78611,-1.90563 7.29368,-2.43797c3.98269,-0.84549 9.88436,-1.44266 13.88281,-0.82212c6.87004,1.06619 6.23428,7.80366 6.17466,13.06302c-0.01792,1.581 0.41114,3.2431 -0.09071,4.74245c-0.66522,1.98742 -1.74845,3.93807 -3.29004,5.35789c-3.49183,3.21599 -5.90596,0.0711 -9.29998,-0.29741c-5.48463,-0.5955 -11.30028,-0.03415 -16.87987,-0.0531c-0.20732,0.05569 -0.42528,0.08538 -0.65018,0.08538z" fill="#60ff4f" stroke="none" stroke-width="0.5"/><path d="M98.84427,169.07975c-2.73203,-1.37632 -5.41697,-1.52966 -8.09594,-3.07924c-1.9122,-0.79836 -4.33854,-0.8656 -5.73659,-2.39509c-0.99456,-1.08805 -0.37722,-2.92602 -0.4719,-4.39709c-0.03238,-0.50306 0.02007,-6.2651 0.06687,-6.44499c0.34329,-1.31959 1.42178,-2.3629 1.80157,-3.67245c0.47567,-1.64017 -0.07506,-3.56646 0.734,-5.07041c0.93479,-1.73766 2.45835,-3.26661 4.22439,-4.14662c0.57231,-0.28518 8.38584,-0.22228 8.95815,0c1.23538,0.47983 1.87413,1.88656 2.93006,2.68743c1.96347,1.4892 4.27488,2.66159 5.77313,4.61816c0.45342,0.59213 0.38912,1.51223 0.91379,2.04226c0.49855,0.50365 1.36953,0.44146 1.94885,0.84963c1.42027,1.00065 2.78654,2.09822 3.99997,3.34163c0.76197,0.7808 1.4707,1.64967 2.14903,2.56214c0.06173,-0.9221 0.16321,-1.84685 0.00777,-2.75168c-0.47586,-2.76998 -3.79936,-5.34175 -0.59342,-8.58495c1.54013,-1.55803 4.27689,-0.95181 6.41534,-1.42772c4.87493,0.0091 8.76746,0.98695 13.4977,1.79309c1.72747,0.2944 3.55867,0.13442 5.20589,0.73232c2.48057,0.90039 3.71222,2.98913 5.17301,4.92743c2.97241,3.94403 4.01252,7.11556 4.02237,12.0671c0.01232,6.19404 -0.57743,12.43726 -2.46196,18.35725c-0.83005,2.6075 -2.91708,4.63097 -4.3357,6.97096c-0.62116,1.02461 -0.64641,2.39178 -1.43082,3.29753c-0.80162,0.92561 -2.24709,1.08423 -3.11341,1.94958c-2.04707,2.04477 -3.4925,4.63913 -5.54699,6.67646c-4.45494,2.07992 -10.43726,2.62866 -9.81026,-4.70819c0.3907,-4.57185 4.67437,-6.20572 4.67437,-10.82232c0,-1.70533 0.46949,-2.37424 -0.5935,-3.68168c-1.2421,-1.52773 -1.4253,-0.90695 -3.36417,-0.86306c-3.00871,0.06811 -6.02366,0.04885 -9.0371,0.02628c-3.71833,4.5455 -7.45339,7.5057 -13.93856,5.75362c-2.04202,-0.55169 -3.61564,-2.23285 -5.57292,-3.0349c-1.32089,-0.54127 -2.8496,-0.64924 -4.02744,-1.45571c-1.01282,-0.69349 -1.53293,-1.91756 -2.2994,-2.87635c0,0 -1.5,-2 0.5,-3.5c2,-1.5 3.5,0.5 3.5,0.5c0.93578,1.39273 2.67667,2.10393 4.24026,2.71267c3.36635,1.31061 6.01994,4.05794 9.99394,2.87329c0.32322,-0.09635 0.61724,-0.23978 0.88849,-0.41965c-0.76405,0.04721 -1.95363,-0.15363 -2.46963,-1.70163c-0.79057,-2.37171 1.58114,-3.16227 1.58114,-3.16227l0.4792,-0.13433c-4.25763,-1.29166 -6.82711,-4.41736 -10.77957,-6.4085z" fill="#60ff4f" stroke="none" stroke-width="0.5"/><path d="M130.95724,199.18458c1.11803,2.23607 -1.11803,3.3541 -1.11803,3.3541l-1.88116,0.81698c-1.17412,0.19568 -2.34825,0.39137 -3.52237,0.58706c-3.35245,0.55842 -6.40143,1.20137 -9.80397,1.20814c-2.67176,0.00531 -6.23978,-0.67323 -8.8186,-0.06688c-0.85191,0.2003 -1.48889,1.00866 -2.34825,1.17413c-0.43026,0.08285 -6.05852,0.06687 -7.03205,0.06687c-5.84273,0 -13.01974,-0.24336 -17.95843,-4.03807c-2.34237,-1.79979 -2.18188,-3.17992 -3.54122,-5.36645c-1.18402,-1.90453 -3.00793,-3.36971 -4.1273,-5.31293c-0.61132,-1.06125 -0.7303,-2.36203 -1.29967,-3.44078l-1.73485,-0.86742c-0.84561,-0.40086 -1.43041,-1.26228 -1.43041,-2.26029c0,-1.38071 1.11929,-2.5 2.5,-2.5h2.9353c5.99477,0 12.43966,0.69281 18.3855,0.03228c2.016,-0.22396 3.30091,-2.39474 5.12711,-3.27757c1.30112,-0.62899 2.83688,-0.55342 4.25532,-0.83013c0,0 35.69267,-3.73367 36.10367,-1.26769c0.411,2.46598 -2.62525,1.90277 -1.45113,1.70709l-6.59358,19.16353c0,0 2.23607,-1.11804 3.35411,1.11803z" fill="#60ff4f" stroke="none" stroke-width="0.5"/><path d="M482.20275,86.23994c0,32.5036 -43.5317,71.08699 -77.94727,71.08699c-34.41557,0 -83.38461,-39.26306 -83.38461,-71.76666c0,-32.50359 48.96904,-77.88368 83.38462,-77.88368c34.41557,0 101.73566,7.31866 101.73566,39.82226z" fill="url(#color-6)" stroke="none" stroke-width="0"/><path d="M186.41497,261.6159c0,15.97059 -45.81148,28.91731 -102.3228,28.91731c-56.51132,0 -102.3228,-12.94672 -102.3228,-28.91731c0,-15.97059 45.81148,-28.91732 102.3228,-28.91732c56.51132,0 102.3228,12.94673 102.3228,28.91732z" fill="#686868" stroke="none" stroke-width="0"/><path d="M367.33354,286.82586c0,16.7896 -32.5328,30.40025 -72.66402,30.40025c-40.13122,0 -72.66402,-13.61065 -72.66402,-30.40025c0,-16.7896 32.53279,-30.40026 72.66402,-30.40026c40.13122,0 72.66402,13.61066 72.66402,30.40026z" fill="#686868" stroke="none" stroke-width="0"/><path d="M667.793,255.34326c1.69392,12.43334 -42.48595,26.31682 -98.6785,31.00961c-56.19255,4.69279 -103.11881,-1.58217 -104.81273,-14.01551c-1.69392,-12.43334 42.48595,-26.31682 98.6785,-31.00961c56.19255,-4.69279 103.11881,1.58217 104.81273,14.01551z" fill="#686868" stroke="none" stroke-width="0"/><path d="M317.28298,356.79887c-1.32313,-12.47825 43.25037,-25.0407 99.55769,-28.05903c56.30732,-3.01833 103.02605,4.65045 104.34918,17.12871c1.32313,12.47825 -43.25036,25.04071 -99.55769,28.05904c-56.30732,3.01833 -103.02605,-4.65046 -104.34918,-17.12871z" fill="#545454" stroke="none" stroke-width="0"/></g></g></svg>