<svg version="1.1" xmlns="http://www.w3.org/2000/svg" xmlns:xlink="http://www.w3.org/1999/xlink" width="791.74736" height="510.99147" viewBox="0,0,791.74736,510.99147"><defs><linearGradient x1="319.52468" y1="-31.01576" x2="319.52468" y2="326.3416" gradientUnits="userSpaceOnUse" id="color-1"><stop offset="0" stop-color="#40e4ff"/><stop offset="1" stop-color="#a7e0ff"/></linearGradient><linearGradient x1="319.00001" y1="185.52587" x2="319.00001" y2="259.88066" gradientUnits="userSpaceOnUse" id="color-2"><stop offset="0" stop-color="#164bbe"/><stop offset="1" stop-color="#1a58df"/></linearGradient><linearGradient x1="320.00001" y1="219.88066" x2="320.00001" y2="387.88066" gradientUnits="userSpaceOnUse" id="color-3"><stop offset="0" stop-color="#ffd896"/><stop offset="1" stop-color="#edb05a"/></linearGradient><radialGradient cx="9.68657" cy="4.76457" r="94.5946" gradientUnits="userSpaceOnUse" id="color-4"><stop offset="0" stop-color="#f8ff50"/><stop offset="1" stop-color="#ffc571"/></radialGradient><radialGradient cx="143.79786" cy="-60.30541" r="0.00125" gradientUnits="userSpaceOnUse" id="color-5"><stop offset="0" stop-color="#ffe57d"/><stop offset="1" stop-color="#ffcdac"/></radialGradient><linearGradient x1="260.54705" y1="32.71234" x2="260.54705" y2="109.71234" gradientUnits="userSpaceOnUse" id="color-6"><stop offset="0" stop-color="#ffffff"/><stop offset="1" stop-color="#ffffff" stop-opacity="0"/></linearGradient><linearGradient x1="550.18161" y1="86.48646" x2="550.18161" y2="134.50441" gradientUnits="userSpaceOnUse" id="color-7"><stop offset="0" stop-color="#ffffff"/><stop offset="1" stop-color="#ffffff" stop-opacity="0"/></linearGradient></defs><g transform="translate(84.90802,120.61081)"><g data-paper-data="{&quot;isPaintingLayer&quot;:true}" fill-rule="nonzero" stroke-linecap="butt" stroke-linejoin="miter" stroke-miterlimit="10" stroke-dasharray="" stroke-dashoffset="0" style="mix-blend-mode: normal"><path d="M-27.32216,326.3416v-357.35736h693.69369v357.35736z" fill="url(#color-1)" stroke="#00941a" stroke-width="0"/><path d="M-65.33934,259.88066v-74.35479c0,0 3.28231,-7.40679 34.44005,-7.05935c24.0999,0.26873 68.49244,8.55481 118.22861,7.27292c52.42791,-1.35127 122.37131,-10.27289 209.01513,-10.18177c22.6562,0.02382 137.27734,10.28599 157.8852,10.41797c85.79663,0.54948 141.09173,-11.74498 178.01165,-11.84548c66.12586,-0.18 71.09804,11.39571 71.09804,11.39571v74.35479z" fill="url(#color-2)" stroke="#05295f" stroke-width="5"/><path d="M-64.33934,387.88066v-168c0,0 86.57765,-23.17622 361.68379,-22.52252c285.92158,0.67939 406.99489,22.52252 406.99489,22.52252v168z" fill="url(#color-3)" stroke="#be5c3d" stroke-width="5"/><path d="M104.28117,4.76457c0,49.34076 -42.35144,89.33934 -94.59459,89.33934c-52.24315,0 -94.59459,-39.99858 -94.59459,-89.33934c0,-49.34075 42.35144,-89.33934 94.59459,-89.33934c52.24315,0 94.5946,39.99859 94.5946,89.33934z" fill="url(#color-4)" stroke="none" stroke-width="0"/><path d="M287.59571,-120.61081v0v0z" fill="url(#color-5)" stroke="none" stroke-width="0"/><path d="M344.04705,71.21234c0,7.71781 -21.10355,33.76038 -21.10355,33.76038c0,0 26.50716,24.22907 25.36628,25.5708c-7.82579,9.20346 -69.53555,0.28249 -95.17488,0.28249c-27.96777,0 -60.8319,-8.59395 -60.8319,-8.59395c0,0 -15.25595,-42.65207 -15.25595,-51.01972c0,-10.25975 3.93852,-25.06113 18.12747,-29.6655c8.2505,-2.67731 33.83212,6.04003 33.83212,6.04003c0,0 9.08925,-15.77728 33.75714,-16.54609c40.27065,-1.25511 46.19002,20.67753 46.19002,20.67753c0,0 21.05284,-10.20224 27.56095,-7.31785c10.26209,4.54815 7.5323,18.24551 7.5323,26.81189z" fill="url(#color-6)" stroke="none" stroke-width="0"/><path d="M474.2139,93.77528c6.50811,-1.79873 27.56095,4.56348 27.56095,4.56348c0,0 5.91937,-13.6774 46.19002,-12.89471c24.66788,0.47944 33.75714,10.3183 33.75714,10.3183c0,0 25.58163,-5.43622 33.83213,-3.76662c14.18895,2.87132 18.12747,12.10161 18.12747,18.4997c0,5.21814 -15.25595,31.8164 -15.25595,31.8164c0,0 -32.86414,5.35927 -60.8319,5.35927c-25.63933,0 -87.34909,5.56321 -95.17488,-0.17616c-1.14088,-0.83671 25.36628,-15.9462 25.36628,-15.9462c0,0 -21.10354,-16.2404 -21.10354,-21.0533c0,-5.34208 -2.72979,-13.88389 7.5323,-16.72016z" data-paper-data="{&quot;index&quot;:null}" fill="url(#color-7)" stroke="none" stroke-width="0"/><path d="M421.43863,39.07999c0,2.5 -2.5,2.5 -2.5,2.5l-1.25852,-0.00001c-1.91079,-0.00429 -8.20693,0.04088 -9.83676,-0.23575c-1.07485,-0.18243 -6.37333,-1.96645 -8.44668,-2.6615c-1.92057,3.69777 -4.08671,6.59432 -8.76112,7.85533c-1.10818,0.29895 -2.2953,0.03631 -3.44296,0.05446c0,0 -2.5,0 -2.5,-2.5c0,-2.5 2.5,-2.5 2.5,-2.5c5.46547,0.12377 6.86801,-3.20628 9.02083,-7.76402l1.97475,-1.5794c0,0 2.23607,-1.11803 3.3541,1.11803c0.15331,0.30663 0.24356,0.59223 0.28514,0.85682c2.2227,0.74355 6.28838,2.09475 6.85366,2.19096c1.14604,0.19506 7.76073,0.1625 9.0098,0.16508l1.24774,-0.00001c0,0 2.5,0 2.5,2.5z" fill="#d2d2d2" stroke="none" stroke-width="0.5"/><path d="M484.51298,58.2947c0,2.5 -2.5,2.5 -2.5,2.5l-1.25852,0c-1.91079,-0.00429 -8.20693,0.04087 -9.83676,-0.23575c-1.07484,-0.18243 -6.37332,-1.96645 -8.44667,-2.6615c-1.92057,3.69777 -4.08671,6.59432 -8.76112,7.85533c-1.10818,0.29895 -2.29531,0.0363 -3.44296,0.05446c0,0 -2.5,0 -2.5,-2.5c0,-2.5 2.5,-2.5 2.5,-2.5c5.46546,0.12377 6.86802,-3.20628 9.02083,-7.76402l1.97476,-1.5794c0,0 2.23606,-1.11803 3.3541,1.11804c0.15332,0.30663 0.24356,0.59223 0.28515,0.85681c2.2227,0.74354 6.28837,2.09475 6.85366,2.19097c1.14603,0.19506 7.76073,0.1625 9.0098,0.16508l1.24775,-0.00001c0,0 2.5,0 2.5,2.5z" fill="#d2d2d2" stroke="none" stroke-width="0.5"/><path d="M536.30914,22.78927c0,2.5 -2.5,2.5 -2.5,2.5l-1.25853,-0.00001c-1.91079,-0.00429 -8.20693,0.04087 -9.83675,-0.23575c-1.07485,-0.18243 -6.37333,-1.96645 -8.44668,-2.6615c-1.92057,3.69777 -4.08671,6.59432 -8.76112,7.85532c-1.10818,0.29895 -2.2953,0.03631 -3.44295,0.05446c0,0 -2.5,0 -2.5,-2.5c0,-2.5 2.5,-2.5 2.5,-2.5c5.46546,0.12376 6.86802,-3.20628 9.02083,-7.76402l1.97476,-1.5794c0,0 2.23606,-1.11803 3.3541,1.11803c0.15332,0.30663 0.24356,0.59223 0.28514,0.85681c2.2227,0.74354 6.28838,2.09475 6.85366,2.19096c1.14603,0.19506 7.76073,0.16251 9.0098,0.16508l1.24775,-0.00001c0,0 2.5,0 2.5,2.5z" fill="#d2d2d2" stroke="none" stroke-width="0.5"/></g></g></svg>